<?xml version="1.0" encoding="UTF-8" standalone="no"?>
<!-- Created with Inkscape (http://www.inkscape.org/) -->

<svg
   xmlns:svg="http://www.w3.org/2000/svg"
   xmlns="http://www.w3.org/2000/svg"
   version="1.2"
   width="744.09448"
   height="1052.3622"
   id="svg2">
  <defs
     id="defs4">
    <marker
       refX="0"
       refY="0"
       orient="auto"
       id="Arrow1Lend"
       style="overflow:visible">
      <path
         d="M 0,0 5,-5 -12.5,0 5,5 0,0 z"
         transform="matrix(-0.8,0,0,-0.8,-10,0)"
         id="path5369"
         style="fill-rule:evenodd;stroke:#000000;stroke-width:1pt;marker-start:none" />
    </marker>
    <marker
       refX="0"
       refY="0"
       orient="auto"
       id="Arrow1Lstart"
       style="overflow:visible">
      <path
         d="M 0,0 5,-5 -12.5,0 5,5 0,0 z"
         transform="matrix(0.8,0,0,0.8,10,0)"
         id="path5366"
         style="fill-rule:evenodd;stroke:#000000;stroke-width:1pt;marker-start:none" />
    </marker>
  </defs>
  <g
     id="layer1">
    <rect
       width="80"
       height="40"
       x="30"
       y="312.36218"
       id="rect3833"
       style="fill:#ffffff;fill-opacity:1;stroke:#000000;stroke-width:0.61721337;stroke-miterlimit:4;stroke-opacity:1;stroke-dasharray:none" />
    <flowRoot
       transform="translate(-69.554687,-247.54294)"
       id="flowRoot3859"
       xml:space="preserve"
       style="font-size:22px;font-style:normal;font-weight:normal;fill:#000000;fill-opacity:1;stroke:none;font-family:Bitstream Vera Sans"><flowRegion
         id="flowRegion3861"><rect
           width="143.83246"
           height="49.924011"
           x="116.16754"
           y="562.43817"
           id="rect3863"
           style="font-size:22px" /></flowRegion><flowPara
         id="flowPara3865"
         style="font-size:24px">user</flowPara><flowPara
         id="flowPara3867" /></flowRoot>    <rect
       width="170"
       height="80"
       x="190"
       y="302.36218"
       id="rect5317"
       style="font-size:18px;fill:#ffffff;fill-opacity:1;stroke:#000000;stroke-width:0.85280287;stroke-miterlimit:4;stroke-opacity:1;stroke-dasharray:none" />
    <rect
       width="190"
       height="100"
       x="450"
       y="192.36218"
       id="rect5319"
       style="fill:#ffffff;fill-opacity:1;stroke:#000000;stroke-width:1;stroke-miterlimit:4;stroke-opacity:1;stroke-dasharray:none" />
    <rect
       width="190"
       height="100"
       x="460"
       y="382.36218"
       id="rect5321"
       style="fill:#ffffff;fill-opacity:1;stroke:#000000;stroke-width:1;stroke-miterlimit:4;stroke-opacity:1;stroke-dasharray:none" />
    <flowRoot
       id="flowRoot5323"
       xml:space="preserve"
       style="font-size:40px;font-style:normal;font-weight:normal;fill:#000000;fill-opacity:1;stroke:none;font-family:Bitstream Vera Sans"><flowRegion
         id="flowRegion5325"><rect
           width="79.802048"
           height="43.436558"
           x="245.46707"
           y="321.01175"
           id="rect5327" /></flowRegion><flowPara
         id="flowPara5329"></flowPara></flowRoot>    <text
       x="210"
       y="332.36218"
       id="text5331"
       xml:space="preserve"
       style="font-size:40px;font-style:normal;font-weight:normal;fill:#000000;fill-opacity:1;stroke:none;font-family:Bitstream Vera Sans"><tspan
         x="210"
         y="332.36218"
         id="tspan5335"
         style="font-size:24px">     user </tspan><tspan
         x="210"
         y="362.36218"
         id="tspan5345"
         style="font-size:24px">application</tspan></text>
    <text
       x="480"
       y="232.36218"
       id="text5347"
       xml:space="preserve"
       style="font-size:18px;font-style:normal;font-weight:normal;fill:#000000;fill-opacity:1;stroke:none;font-family:Bitstream Vera Sans"><tspan
         x="480"
         y="232.36218"
         id="tspan5349"
         style="font-size:24px">server with </tspan><tspan
         x="480"
         y="262.36218"
         id="tspan5359"
         style="font-size:24px">   ebooks</tspan></text>
    <text
       x="470"
       y="432.36218"
       id="text5351"
       xml:space="preserve"
       style="font-size:18px;font-style:normal;font-weight:normal;fill:#000000;fill-opacity:1;stroke:none;font-family:Bitstream Vera Sans"><tspan
         x="470"
         y="432.36218"
         id="tspan5353"
         style="font-size:24px">another server</tspan><tspan
         x="470"
         y="462.36218"
         id="tspan5357"
         style="font-size:24px"> with ebooks</tspan><tspan
         x="470"
         y="492.36218"
         id="tspan5355" /></text>
    <path
       d="m 184.85792,341.21479 c -1.01016,0 -2.02031,0 -3.03046,0 -0.33672,0 -1.01015,0.33672 -1.01015,0 0,-0.47619 0.79719,-0.58423 1.01015,-1.01015 0.15058,-0.30117 0,-0.67344 0,-1.01015 0,-0.33672 0.23809,-0.77206 0,-1.01016 -0.2381,-0.23809 -0.67344,0 -1.01015,0 -0.33672,0 -0.70899,-0.15058 -1.01016,0 -0.42591,0.21296 -0.58423,0.7972 -1.01015,1.01016 -0.30117,0.15058 -0.70898,-0.15059 -1.01015,0 -2.4965,1.24824 0.34868,1.01015 -2.02031,1.01015 -10.10152,0 -20.20305,0 -30.30457,0 -2.02031,0 -4.04061,0 -6.06092,0 -1.01015,0 -2.0203,0 -3.03046,0 -0.67343,0 -1.38245,-0.21602 -2.0203,0 -1.53311,0.51922 -2.73165,2.15754 -4.35029,2.15754 -0.75617,0 -0.46698,-1.43836 -0.70047,-2.15754 l -4.04061,0 c -4.71405,0 -9.42809,0 -14.14214,0"
       id="path5361"
       style="fill:none;stroke:#000000;stroke-width:1px;stroke-linecap:butt;stroke-linejoin:miter;stroke-opacity:1;marker-start:url(#Arrow1Lstart);marker-mid:none;marker-end:url(#Arrow1Lend)" />
    <path
       d="m 370,322.36218 70,-60"
       id="path6563"
       style="fill:none;stroke:#000000;stroke-width:1px;stroke-linecap:butt;stroke-linejoin:miter;stroke-opacity:1;marker-start:url(#Arrow1Lstart);marker-end:url(#Arrow1Lend)" />
    <path
       d="m 450,432.36218 -80,-70"
       id="path7123"
       style="fill:none;stroke:#000000;stroke-width:1px;stroke-linecap:butt;stroke-linejoin:miter;stroke-opacity:1;marker-start:url(#Arrow1Lstart);marker-end:url(#Arrow1Lend)" />
  </g>
</svg>
